<mxfile host="Electron" modified="2024-10-14T14:24:51.551Z" agent="Mozilla/5.0 (Macintosh; Intel Mac OS X 10_15_7) AppleWebKit/537.36 (KHTML, like Gecko) draw.io/21.5.0 Chrome/112.0.5615.204 Electron/24.5.1 Safari/537.36" etag="rL5yBmnZ2VpTSoVGqlKk" version="21.5.0" type="device" pages="12">
  <diagram name="high level process standard" id="35UoyJD8C9x-JeC7sMYR">
    <mxGraphModel dx="1114" dy="824" grid="1" gridSize="10" guides="1" tooltips="1" connect="1" arrows="1" fold="1" page="1" pageScale="1" pageWidth="1169" pageHeight="827" math="0" shadow="0">
      <root>
        <mxCell id="9Hj9aeuWXrm_yfzsziQb-0" />
        <mxCell id="9Hj9aeuWXrm_yfzsziQb-1" parent="9Hj9aeuWXrm_yfzsziQb-0" />
        <mxCell id="9Hj9aeuWXrm_yfzsziQb-2" value="" style="html=1;verticalLabelPosition=bottom;align=center;labelBackgroundColor=#ffffff;verticalAlign=top;strokeWidth=2;strokeColor=#666666;shadow=0;dashed=0;shape=mxgraph.ios7.icons.settings;fillColor=#f5f5f5;fontColor=#333333;" parent="9Hj9aeuWXrm_yfzsziQb-1" vertex="1">
          <mxGeometry x="532.5" y="185" width="90" height="80" as="geometry" />
        </mxCell>
        <mxCell id="9Hj9aeuWXrm_yfzsziQb-3" value="Scenario&lt;br&gt;Step 1" style="html=1;shadow=0;dashed=0;align=center;verticalAlign=middle;shape=mxgraph.arrows2.arrow;dy=0;dx=30;notch=30;" parent="9Hj9aeuWXrm_yfzsziQb-1" vertex="1">
          <mxGeometry x="277.5" y="190" width="120" height="70" as="geometry" />
        </mxCell>
        <mxCell id="9Hj9aeuWXrm_yfzsziQb-4" value="Scenario&lt;br&gt;Step 2" style="html=1;shadow=0;dashed=0;align=center;verticalAlign=middle;shape=mxgraph.arrows2.arrow;dy=0;dx=30;notch=30;" parent="9Hj9aeuWXrm_yfzsziQb-1" vertex="1">
          <mxGeometry x="397.5" y="190" width="120" height="70" as="geometry" />
        </mxCell>
        <mxCell id="1vt0xGjL4FQXf_DK3vEr-0" value="" style="html=1;verticalLabelPosition=bottom;align=center;labelBackgroundColor=#ffffff;verticalAlign=top;strokeWidth=2;strokeColor=#666666;shadow=0;dashed=0;shape=mxgraph.ios7.icons.settings;fillColor=#f5f5f5;fontColor=#333333;" parent="9Hj9aeuWXrm_yfzsziQb-1" vertex="1">
          <mxGeometry x="277.5" y="320" width="90" height="80" as="geometry" />
        </mxCell>
        <mxCell id="1vt0xGjL4FQXf_DK3vEr-1" value="Scenario&lt;br&gt;Step 1" style="html=1;shadow=0;dashed=0;align=center;verticalAlign=middle;shape=mxgraph.arrows2.arrow;dy=0;dx=30;notch=30;" parent="9Hj9aeuWXrm_yfzsziQb-1" vertex="1">
          <mxGeometry x="382.5" y="325" width="120" height="70" as="geometry" />
        </mxCell>
        <mxCell id="1vt0xGjL4FQXf_DK3vEr-2" value="Scenario&lt;br&gt;Step 2" style="html=1;shadow=0;dashed=0;align=center;verticalAlign=middle;shape=mxgraph.arrows2.arrow;dy=0;dx=30;notch=30;" parent="9Hj9aeuWXrm_yfzsziQb-1" vertex="1">
          <mxGeometry x="502.5" y="325" width="120" height="70" as="geometry" />
        </mxCell>
      </root>
    </mxGraphModel>
  </diagram>
  <diagram id="cJZX8th1uMOtHbmxEhJv" name="high level process middle">
    <mxGraphModel dx="1114" dy="824" grid="1" gridSize="10" guides="1" tooltips="1" connect="1" arrows="1" fold="1" page="1" pageScale="1" pageWidth="1169" pageHeight="827" math="0" shadow="0">
      <root>
        <mxCell id="wrPZfg9ZY-TKL_DeNTZu-0" />
        <mxCell id="wrPZfg9ZY-TKL_DeNTZu-1" parent="wrPZfg9ZY-TKL_DeNTZu-0" />
        <mxCell id="wrPZfg9ZY-TKL_DeNTZu-5" value="" style="html=1;verticalLabelPosition=bottom;align=center;labelBackgroundColor=#ffffff;verticalAlign=top;strokeWidth=2;strokeColor=#666666;shadow=0;dashed=0;shape=mxgraph.ios7.icons.settings;fillColor=#f5f5f5;fontColor=#333333;" parent="wrPZfg9ZY-TKL_DeNTZu-1" vertex="1">
          <mxGeometry x="390" y="185" width="90" height="80" as="geometry" />
        </mxCell>
        <mxCell id="wrPZfg9ZY-TKL_DeNTZu-6" value="Scenario&lt;br&gt;Step 1" style="html=1;shadow=0;dashed=0;align=center;verticalAlign=middle;shape=mxgraph.arrows2.arrow;dy=0;dx=30;notch=30;" parent="wrPZfg9ZY-TKL_DeNTZu-1" vertex="1">
          <mxGeometry x="240" y="190" width="120" height="70" as="geometry" />
        </mxCell>
        <mxCell id="wrPZfg9ZY-TKL_DeNTZu-7" value="Scenario&lt;br&gt;Step 2" style="html=1;shadow=0;dashed=0;align=center;verticalAlign=middle;shape=mxgraph.arrows2.arrow;dy=0;dx=30;notch=30;" parent="wrPZfg9ZY-TKL_DeNTZu-1" vertex="1">
          <mxGeometry x="510" y="190" width="120" height="70" as="geometry" />
        </mxCell>
      </root>
    </mxGraphModel>
  </diagram>
  <diagram id="rQyaIH5RnM-JtB_CxQGE" name="Real Life - Atomicity">
    <mxGraphModel dx="1114" dy="824" grid="1" gridSize="10" guides="1" tooltips="1" connect="1" arrows="1" fold="1" page="1" pageScale="1" pageWidth="827" pageHeight="1169" math="0" shadow="0">
      <root>
        <mxCell id="0" />
        <mxCell id="1" parent="0" />
        <mxCell id="2bdpw8_4rrhN_VmV6U5d-1" value="Search Items" style="shape=step;perimeter=stepPerimeter;whiteSpace=wrap;html=1;fixedSize=1;" parent="1" vertex="1">
          <mxGeometry x="90" y="170" width="120" height="80" as="geometry" />
        </mxCell>
        <mxCell id="2bdpw8_4rrhN_VmV6U5d-2" value="" style="shape=mxgraph.signs.food.coffee;html=1;pointerEvents=1;fillColor=#000000;strokeColor=none;verticalLabelPosition=bottom;verticalAlign=top;align=center;" parent="1" vertex="1">
          <mxGeometry x="230" y="179.5" width="98" height="61" as="geometry" />
        </mxCell>
        <mxCell id="2bdpw8_4rrhN_VmV6U5d-3" value="" style="shape=mxgraph.signs.travel.hotel_information;html=1;pointerEvents=1;fillColor=#000000;strokeColor=none;verticalLabelPosition=bottom;verticalAlign=top;align=center;sketch=0;" parent="1" vertex="1">
          <mxGeometry x="500" y="151" width="94" height="99" as="geometry" />
        </mxCell>
        <mxCell id="7bwekvddlBnfOtZZcSqQ-1" value="Put &lt;br&gt;&amp;nbsp;product &lt;br&gt;in basket&lt;span style=&quot;color: rgba(0 , 0 , 0 , 0) ; font-family: monospace ; font-size: 0px&quot;&gt;%3CmxGraphModel%3E%3Croot%3E%3CmxCell%20id%3D%220%22%2F%3E%3CmxCell%20id%3D%221%22%20parent%3D%220%22%2F%3E%3CmxCell%20id%3D%222%22%20value%3D%22Step%201%22%20style%3D%22shape%3Dstep%3Bperimeter%3DstepPerimeter%3BwhiteSpace%3Dwrap%3Bhtml%3D1%3BfixedSize%3D1%3BfontSize%3D12%3BfontStyle%3D0%22%20vertex%3D%221%22%20parent%3D%221%22%3E%3CmxGeometry%20x%3D%22250%22%20y%3D%22160%22%20width%3D%2286%22%20height%3D%2250%22%20as%3D%22geometry%22%2F%3E%3C%2FmxCell%3E%3C%2Froot%3E%3C%2FmxGraphModel%3E&lt;/span&gt;" style="shape=step;perimeter=stepPerimeter;html=1;fixedSize=1;fontSize=12;fontStyle=0;whiteSpace=wrap;" parent="1" vertex="1">
          <mxGeometry x="354" y="170" width="120" height="80" as="geometry" />
        </mxCell>
        <mxCell id="7bwekvddlBnfOtZZcSqQ-2" value="Checkout" style="shape=step;perimeter=stepPerimeter;whiteSpace=wrap;html=1;fixedSize=1;" parent="1" vertex="1">
          <mxGeometry x="630" y="170" width="120" height="80" as="geometry" />
        </mxCell>
      </root>
    </mxGraphModel>
  </diagram>
  <diagram name="Real Life - Uniqueness" id="8itrAyi-0wtlUmzGAC7J">
    <mxGraphModel dx="1114" dy="824" grid="1" gridSize="10" guides="1" tooltips="1" connect="1" arrows="1" fold="1" page="1" pageScale="1" pageWidth="827" pageHeight="1169" math="0" shadow="0">
      <root>
        <mxCell id="Uh42WfVkhlIEv5Dv_FzB-0" />
        <mxCell id="Uh42WfVkhlIEv5Dv_FzB-1" parent="Uh42WfVkhlIEv5Dv_FzB-0" />
        <mxCell id="Uh42WfVkhlIEv5Dv_FzB-2" value="Search Items" style="shape=step;perimeter=stepPerimeter;whiteSpace=wrap;html=1;fixedSize=1;" parent="Uh42WfVkhlIEv5Dv_FzB-1" vertex="1">
          <mxGeometry x="90" y="170" width="120" height="80" as="geometry" />
        </mxCell>
        <mxCell id="Uh42WfVkhlIEv5Dv_FzB-3" value="" style="shape=mxgraph.signs.food.coffee;html=1;pointerEvents=1;fillColor=#000000;strokeColor=none;verticalLabelPosition=bottom;verticalAlign=top;align=center;" parent="Uh42WfVkhlIEv5Dv_FzB-1" vertex="1">
          <mxGeometry x="230" y="179.5" width="98" height="61" as="geometry" />
        </mxCell>
        <mxCell id="Uh42WfVkhlIEv5Dv_FzB-4" value="" style="shape=mxgraph.signs.travel.hotel_information;html=1;pointerEvents=1;fillColor=#000000;strokeColor=none;verticalLabelPosition=bottom;verticalAlign=top;align=center;sketch=0;" parent="Uh42WfVkhlIEv5Dv_FzB-1" vertex="1">
          <mxGeometry x="500" y="151" width="94" height="99" as="geometry" />
        </mxCell>
        <mxCell id="Uh42WfVkhlIEv5Dv_FzB-5" value="Put &lt;br&gt;&amp;nbsp;product &lt;br&gt;in basket&lt;span style=&quot;color: rgba(0 , 0 , 0 , 0) ; font-family: monospace ; font-size: 0px&quot;&gt;%3CmxGraphModel%3E%3Croot%3E%3CmxCell%20id%3D%220%22%2F%3E%3CmxCell%20id%3D%221%22%20parent%3D%220%22%2F%3E%3CmxCell%20id%3D%222%22%20value%3D%22Step%201%22%20style%3D%22shape%3Dstep%3Bperimeter%3DstepPerimeter%3BwhiteSpace%3Dwrap%3Bhtml%3D1%3BfixedSize%3D1%3BfontSize%3D12%3BfontStyle%3D0%22%20vertex%3D%221%22%20parent%3D%221%22%3E%3CmxGeometry%20x%3D%22250%22%20y%3D%22160%22%20width%3D%2286%22%20height%3D%2250%22%20as%3D%22geometry%22%2F%3E%3C%2FmxCell%3E%3C%2Froot%3E%3C%2FmxGraphModel%3E&lt;/span&gt;" style="shape=step;perimeter=stepPerimeter;html=1;fixedSize=1;fontSize=12;fontStyle=0;whiteSpace=wrap;" parent="Uh42WfVkhlIEv5Dv_FzB-1" vertex="1">
          <mxGeometry x="354" y="170" width="120" height="80" as="geometry" />
        </mxCell>
        <mxCell id="Uh42WfVkhlIEv5Dv_FzB-6" value="Checkout" style="shape=step;perimeter=stepPerimeter;whiteSpace=wrap;html=1;fixedSize=1;" parent="Uh42WfVkhlIEv5Dv_FzB-1" vertex="1">
          <mxGeometry x="630" y="170" width="120" height="80" as="geometry" />
        </mxCell>
        <mxCell id="9jLVngvXAHqGqPy5-Dcn-1" value="Search Items" style="shape=step;perimeter=stepPerimeter;whiteSpace=wrap;html=1;fixedSize=1;" parent="Uh42WfVkhlIEv5Dv_FzB-1" vertex="1">
          <mxGeometry x="40" y="209" width="120" height="80" as="geometry" />
        </mxCell>
        <mxCell id="9jLVngvXAHqGqPy5-Dcn-2" value="" style="shape=mxgraph.signs.food.coffee;html=1;pointerEvents=1;fillColor=#000000;strokeColor=none;verticalLabelPosition=bottom;verticalAlign=top;align=center;" parent="Uh42WfVkhlIEv5Dv_FzB-1" vertex="1">
          <mxGeometry x="180" y="218.5" width="98" height="61" as="geometry" />
        </mxCell>
        <mxCell id="9jLVngvXAHqGqPy5-Dcn-3" value="" style="shape=mxgraph.signs.travel.hotel_information;html=1;pointerEvents=1;fillColor=#000000;strokeColor=none;verticalLabelPosition=bottom;verticalAlign=top;align=center;sketch=0;" parent="Uh42WfVkhlIEv5Dv_FzB-1" vertex="1">
          <mxGeometry x="450" y="190" width="94" height="99" as="geometry" />
        </mxCell>
        <mxCell id="9jLVngvXAHqGqPy5-Dcn-4" value="Put &lt;br&gt;&amp;nbsp;product &lt;br&gt;in basket&lt;span style=&quot;color: rgba(0 , 0 , 0 , 0) ; font-family: monospace ; font-size: 0px&quot;&gt;%3CmxGraphModel%3E%3Croot%3E%3CmxCell%20id%3D%220%22%2F%3E%3CmxCell%20id%3D%221%22%20parent%3D%220%22%2F%3E%3CmxCell%20id%3D%222%22%20value%3D%22Step%201%22%20style%3D%22shape%3Dstep%3Bperimeter%3DstepPerimeter%3BwhiteSpace%3Dwrap%3Bhtml%3D1%3BfixedSize%3D1%3BfontSize%3D12%3BfontStyle%3D0%22%20vertex%3D%221%22%20parent%3D%221%22%3E%3CmxGeometry%20x%3D%22250%22%20y%3D%22160%22%20width%3D%2286%22%20height%3D%2250%22%20as%3D%22geometry%22%2F%3E%3C%2FmxCell%3E%3C%2Froot%3E%3C%2FmxGraphModel%3E&lt;/span&gt;" style="shape=step;perimeter=stepPerimeter;html=1;fixedSize=1;fontSize=12;fontStyle=0;whiteSpace=wrap;" parent="Uh42WfVkhlIEv5Dv_FzB-1" vertex="1">
          <mxGeometry x="304" y="209" width="120" height="80" as="geometry" />
        </mxCell>
        <mxCell id="9jLVngvXAHqGqPy5-Dcn-5" value="Checkout" style="shape=step;perimeter=stepPerimeter;whiteSpace=wrap;html=1;fixedSize=1;" parent="Uh42WfVkhlIEv5Dv_FzB-1" vertex="1">
          <mxGeometry x="580" y="209" width="120" height="80" as="geometry" />
        </mxCell>
        <mxCell id="9jLVngvXAHqGqPy5-Dcn-6" value="Search Items" style="shape=step;perimeter=stepPerimeter;whiteSpace=wrap;html=1;fixedSize=1;" parent="Uh42WfVkhlIEv5Dv_FzB-1" vertex="1">
          <mxGeometry x="160" y="138.5" width="120" height="80" as="geometry" />
        </mxCell>
        <mxCell id="9jLVngvXAHqGqPy5-Dcn-7" value="" style="shape=mxgraph.signs.food.coffee;html=1;pointerEvents=1;fillColor=#000000;strokeColor=none;verticalLabelPosition=bottom;verticalAlign=top;align=center;" parent="Uh42WfVkhlIEv5Dv_FzB-1" vertex="1">
          <mxGeometry x="300" y="148" width="98" height="61" as="geometry" />
        </mxCell>
        <mxCell id="9jLVngvXAHqGqPy5-Dcn-8" value="" style="shape=mxgraph.signs.travel.hotel_information;html=1;pointerEvents=1;fillColor=#000000;strokeColor=none;verticalLabelPosition=bottom;verticalAlign=top;align=center;sketch=0;" parent="Uh42WfVkhlIEv5Dv_FzB-1" vertex="1">
          <mxGeometry x="570" y="119.5" width="94" height="99" as="geometry" />
        </mxCell>
        <mxCell id="9jLVngvXAHqGqPy5-Dcn-9" value="Put &lt;br&gt;&amp;nbsp;product &lt;br&gt;in basket&lt;span style=&quot;color: rgba(0 , 0 , 0 , 0) ; font-family: monospace ; font-size: 0px&quot;&gt;%3CmxGraphModel%3E%3Croot%3E%3CmxCell%20id%3D%220%22%2F%3E%3CmxCell%20id%3D%221%22%20parent%3D%220%22%2F%3E%3CmxCell%20id%3D%222%22%20value%3D%22Step%201%22%20style%3D%22shape%3Dstep%3Bperimeter%3DstepPerimeter%3BwhiteSpace%3Dwrap%3Bhtml%3D1%3BfixedSize%3D1%3BfontSize%3D12%3BfontStyle%3D0%22%20vertex%3D%221%22%20parent%3D%221%22%3E%3CmxGeometry%20x%3D%22250%22%20y%3D%22160%22%20width%3D%2286%22%20height%3D%2250%22%20as%3D%22geometry%22%2F%3E%3C%2FmxCell%3E%3C%2Froot%3E%3C%2FmxGraphModel%3E&lt;/span&gt;" style="shape=step;perimeter=stepPerimeter;html=1;fixedSize=1;fontSize=12;fontStyle=0;whiteSpace=wrap;" parent="Uh42WfVkhlIEv5Dv_FzB-1" vertex="1">
          <mxGeometry x="424" y="138.5" width="120" height="80" as="geometry" />
        </mxCell>
        <mxCell id="9jLVngvXAHqGqPy5-Dcn-10" value="Checkout" style="shape=step;perimeter=stepPerimeter;whiteSpace=wrap;html=1;fixedSize=1;" parent="Uh42WfVkhlIEv5Dv_FzB-1" vertex="1">
          <mxGeometry x="700" y="138.5" width="120" height="80" as="geometry" />
        </mxCell>
        <mxCell id="9jLVngvXAHqGqPy5-Dcn-11" value="Search Items" style="shape=step;perimeter=stepPerimeter;whiteSpace=wrap;html=1;fixedSize=1;" parent="Uh42WfVkhlIEv5Dv_FzB-1" vertex="1">
          <mxGeometry x="120" y="279" width="120" height="80" as="geometry" />
        </mxCell>
        <mxCell id="9jLVngvXAHqGqPy5-Dcn-12" value="" style="shape=mxgraph.signs.food.coffee;html=1;pointerEvents=1;fillColor=#000000;strokeColor=none;verticalLabelPosition=bottom;verticalAlign=top;align=center;" parent="Uh42WfVkhlIEv5Dv_FzB-1" vertex="1">
          <mxGeometry x="260" y="288.5" width="98" height="61" as="geometry" />
        </mxCell>
        <mxCell id="9jLVngvXAHqGqPy5-Dcn-13" value="" style="shape=mxgraph.signs.travel.hotel_information;html=1;pointerEvents=1;fillColor=#000000;strokeColor=none;verticalLabelPosition=bottom;verticalAlign=top;align=center;sketch=0;" parent="Uh42WfVkhlIEv5Dv_FzB-1" vertex="1">
          <mxGeometry x="530" y="260" width="94" height="99" as="geometry" />
        </mxCell>
        <mxCell id="9jLVngvXAHqGqPy5-Dcn-14" value="Put &lt;br&gt;&amp;nbsp;product &lt;br&gt;in basket&lt;span style=&quot;color: rgba(0 , 0 , 0 , 0) ; font-family: monospace ; font-size: 0px&quot;&gt;%3CmxGraphModel%3E%3Croot%3E%3CmxCell%20id%3D%220%22%2F%3E%3CmxCell%20id%3D%221%22%20parent%3D%220%22%2F%3E%3CmxCell%20id%3D%222%22%20value%3D%22Step%201%22%20style%3D%22shape%3Dstep%3Bperimeter%3DstepPerimeter%3BwhiteSpace%3Dwrap%3Bhtml%3D1%3BfixedSize%3D1%3BfontSize%3D12%3BfontStyle%3D0%22%20vertex%3D%221%22%20parent%3D%221%22%3E%3CmxGeometry%20x%3D%22250%22%20y%3D%22160%22%20width%3D%2286%22%20height%3D%2250%22%20as%3D%22geometry%22%2F%3E%3C%2FmxCell%3E%3C%2Froot%3E%3C%2FmxGraphModel%3E&lt;/span&gt;" style="shape=step;perimeter=stepPerimeter;html=1;fixedSize=1;fontSize=12;fontStyle=0;whiteSpace=wrap;" parent="Uh42WfVkhlIEv5Dv_FzB-1" vertex="1">
          <mxGeometry x="384" y="279" width="120" height="80" as="geometry" />
        </mxCell>
        <mxCell id="9jLVngvXAHqGqPy5-Dcn-15" value="Checkout" style="shape=step;perimeter=stepPerimeter;whiteSpace=wrap;html=1;fixedSize=1;" parent="Uh42WfVkhlIEv5Dv_FzB-1" vertex="1">
          <mxGeometry x="660" y="279" width="120" height="80" as="geometry" />
        </mxCell>
        <mxCell id="9jLVngvXAHqGqPy5-Dcn-16" value="Search Items" style="shape=step;perimeter=stepPerimeter;whiteSpace=wrap;html=1;fixedSize=1;" parent="Uh42WfVkhlIEv5Dv_FzB-1" vertex="1">
          <mxGeometry x="50" y="319" width="120" height="80" as="geometry" />
        </mxCell>
        <mxCell id="9jLVngvXAHqGqPy5-Dcn-17" value="" style="shape=mxgraph.signs.food.coffee;html=1;pointerEvents=1;fillColor=#000000;strokeColor=none;verticalLabelPosition=bottom;verticalAlign=top;align=center;" parent="Uh42WfVkhlIEv5Dv_FzB-1" vertex="1">
          <mxGeometry x="190" y="328.5" width="98" height="61" as="geometry" />
        </mxCell>
        <mxCell id="9jLVngvXAHqGqPy5-Dcn-18" value="" style="shape=mxgraph.signs.travel.hotel_information;html=1;pointerEvents=1;fillColor=#000000;strokeColor=none;verticalLabelPosition=bottom;verticalAlign=top;align=center;sketch=0;" parent="Uh42WfVkhlIEv5Dv_FzB-1" vertex="1">
          <mxGeometry x="460" y="300" width="94" height="99" as="geometry" />
        </mxCell>
        <mxCell id="9jLVngvXAHqGqPy5-Dcn-19" value="Put &lt;br&gt;&amp;nbsp;product &lt;br&gt;in basket&lt;span style=&quot;color: rgba(0 , 0 , 0 , 0) ; font-family: monospace ; font-size: 0px&quot;&gt;%3CmxGraphModel%3E%3Croot%3E%3CmxCell%20id%3D%220%22%2F%3E%3CmxCell%20id%3D%221%22%20parent%3D%220%22%2F%3E%3CmxCell%20id%3D%222%22%20value%3D%22Step%201%22%20style%3D%22shape%3Dstep%3Bperimeter%3DstepPerimeter%3BwhiteSpace%3Dwrap%3Bhtml%3D1%3BfixedSize%3D1%3BfontSize%3D12%3BfontStyle%3D0%22%20vertex%3D%221%22%20parent%3D%221%22%3E%3CmxGeometry%20x%3D%22250%22%20y%3D%22160%22%20width%3D%2286%22%20height%3D%2250%22%20as%3D%22geometry%22%2F%3E%3C%2FmxCell%3E%3C%2Froot%3E%3C%2FmxGraphModel%3E&lt;/span&gt;" style="shape=step;perimeter=stepPerimeter;html=1;fixedSize=1;fontSize=12;fontStyle=0;whiteSpace=wrap;" parent="Uh42WfVkhlIEv5Dv_FzB-1" vertex="1">
          <mxGeometry x="314" y="319" width="120" height="80" as="geometry" />
        </mxCell>
        <mxCell id="9jLVngvXAHqGqPy5-Dcn-20" value="Checkout" style="shape=step;perimeter=stepPerimeter;whiteSpace=wrap;html=1;fixedSize=1;" parent="Uh42WfVkhlIEv5Dv_FzB-1" vertex="1">
          <mxGeometry x="590" y="319" width="120" height="80" as="geometry" />
        </mxCell>
      </root>
    </mxGraphModel>
  </diagram>
  <diagram id="ERp9WnVtH4whcAw8vB06" name="context">
    <mxGraphModel dx="1114" dy="824" grid="1" gridSize="10" guides="1" tooltips="1" connect="1" arrows="1" fold="1" page="1" pageScale="1" pageWidth="1169" pageHeight="827" math="0" shadow="0">
      <root>
        <mxCell id="taNiYJZE4H6HRXasBe19-0" />
        <mxCell id="taNiYJZE4H6HRXasBe19-1" parent="taNiYJZE4H6HRXasBe19-0" />
        <mxCell id="p17I4pDVQMopZZmO1C1a-9" style="edgeStyle=orthogonalEdgeStyle;rounded=0;orthogonalLoop=1;jettySize=auto;html=1;exitX=0.5;exitY=1;exitDx=0;exitDy=0;entryX=0.2;entryY=-0.05;entryDx=0;entryDy=0;entryPerimeter=0;" parent="taNiYJZE4H6HRXasBe19-1" source="taNiYJZE4H6HRXasBe19-3" target="p17I4pDVQMopZZmO1C1a-8" edge="1">
          <mxGeometry relative="1" as="geometry" />
        </mxCell>
        <mxCell id="taNiYJZE4H6HRXasBe19-3" value="Seach&lt;br style=&quot;border-color: var(--border-color);&quot;&gt;Items" style="shape=step;perimeter=stepPerimeter;whiteSpace=wrap;html=1;fixedSize=1;fontSize=12;fontStyle=0" parent="taNiYJZE4H6HRXasBe19-1" vertex="1">
          <mxGeometry x="540" y="140" width="86" height="50" as="geometry" />
        </mxCell>
        <mxCell id="taNiYJZE4H6HRXasBe19-4" style="edgeStyle=orthogonalEdgeStyle;rounded=0;orthogonalLoop=1;jettySize=auto;html=1;exitX=0.5;exitY=1;exitDx=0;exitDy=0;entryX=0.5;entryY=0;entryDx=0;entryDy=0;fontSize=17;startArrow=classic;startFill=1;entryPerimeter=0;" parent="taNiYJZE4H6HRXasBe19-1" source="taNiYJZE4H6HRXasBe19-5" target="p17I4pDVQMopZZmO1C1a-8" edge="1">
          <mxGeometry relative="1" as="geometry">
            <mxPoint x="685" y="270" as="targetPoint" />
          </mxGeometry>
        </mxCell>
        <mxCell id="taNiYJZE4H6HRXasBe19-5" value="Put&lt;br style=&quot;border-color: var(--border-color);&quot;&gt;&amp;nbsp;product&lt;br style=&quot;border-color: var(--border-color);&quot;&gt;&amp;nbsp;in basket" style="shape=step;perimeter=stepPerimeter;whiteSpace=wrap;html=1;fixedSize=1;fontSize=12;fontStyle=0" parent="taNiYJZE4H6HRXasBe19-1" vertex="1">
          <mxGeometry x="610" y="140" width="86" height="50" as="geometry" />
        </mxCell>
        <mxCell id="taNiYJZE4H6HRXasBe19-6" style="edgeStyle=orthogonalEdgeStyle;rounded=0;orthogonalLoop=1;jettySize=auto;html=1;exitX=0.5;exitY=1;exitDx=0;exitDy=0;fontSize=14;startArrow=classic;startFill=1;" parent="taNiYJZE4H6HRXasBe19-1" source="taNiYJZE4H6HRXasBe19-7" edge="1">
          <mxGeometry relative="1" as="geometry">
            <mxPoint x="820" y="250" as="targetPoint" />
          </mxGeometry>
        </mxCell>
        <mxCell id="taNiYJZE4H6HRXasBe19-7" value="Pay&lt;br style=&quot;border-color: var(--border-color);&quot;&gt;for&lt;br style=&quot;border-color: var(--border-color);&quot;&gt;product" style="shape=step;perimeter=stepPerimeter;whiteSpace=wrap;html=1;fixedSize=1;fontSize=12;fontStyle=0" parent="taNiYJZE4H6HRXasBe19-1" vertex="1">
          <mxGeometry x="760" y="140" width="86" height="50" as="geometry" />
        </mxCell>
        <mxCell id="taNiYJZE4H6HRXasBe19-10" value="&lt;b style=&quot;font-size: 14px;&quot;&gt;Major Change&lt;/b&gt;" style="rounded=0;whiteSpace=wrap;html=1;fillColor=#e3c800;strokeColor=#B09500;fontColor=#000000;horizontal=0;rotation=-180;fontSize=14;" parent="taNiYJZE4H6HRXasBe19-1" vertex="1">
          <mxGeometry x="710" y="100" width="36" height="110" as="geometry" />
        </mxCell>
        <mxCell id="p17I4pDVQMopZZmO1C1a-0" style="edgeStyle=orthogonalEdgeStyle;rounded=0;orthogonalLoop=1;jettySize=auto;html=1;exitX=0.5;exitY=1;exitDx=0;exitDy=0;fontSize=14;entryX=0.15;entryY=-0.033;entryDx=0;entryDy=0;entryPerimeter=0;" parent="taNiYJZE4H6HRXasBe19-1" source="p17I4pDVQMopZZmO1C1a-1" target="p17I4pDVQMopZZmO1C1a-7" edge="1">
          <mxGeometry relative="1" as="geometry">
            <mxPoint x="213" y="270" as="targetPoint" />
          </mxGeometry>
        </mxCell>
        <mxCell id="p17I4pDVQMopZZmO1C1a-1" value="Seach&lt;br style=&quot;border-color: var(--border-color);&quot;&gt;Items" style="shape=step;perimeter=stepPerimeter;whiteSpace=wrap;html=1;fixedSize=1;fontSize=12;fontStyle=0" parent="taNiYJZE4H6HRXasBe19-1" vertex="1">
          <mxGeometry x="130" y="140" width="86" height="50" as="geometry" />
        </mxCell>
        <mxCell id="p17I4pDVQMopZZmO1C1a-2" value="Put&lt;br style=&quot;border-color: var(--border-color);&quot;&gt;&amp;nbsp;product&lt;br style=&quot;border-color: var(--border-color);&quot;&gt;&amp;nbsp;in basket&lt;span style=&quot;border-color: var(--border-color); color: rgba(0, 0, 0, 0); font-family: monospace; font-size: 0px;&quot;&gt;%3CmxGraphModel%3E%3Croot%3E%3CmxCell%20id%3D%220%22%2F%3E%3CmxCell%20id%3D%221%22%20parent%3D%220%22%2F%3E%3CmxCell%20id%3D%222%22%20value%3D%22Step%201%22%20style%3D%22shape%3Dstep%3Bperimeter%3DstepPerimeter%3BwhiteSpace%3Dwrap%3Bhtml%3D1%3BfixedSize%3D1%3BfontSize%3D12%3BfontStyle%3D0%22%20vertex%3D%221%22%20parent%3D%221%22%3E%3CmxGeometry%20x%3D%22250%22%20y%3D%22160%22%20width%3D%2286%22%20height%3D%2250%22%20as%3D%22geometry%22%2F%3E%3C%2FmxCell%3E%3C%2Froot%3E%3C%2FmxGraphModel%3E&lt;/span&gt;" style="shape=step;perimeter=stepPerimeter;whiteSpace=wrap;html=1;fixedSize=1;fontSize=12;fontStyle=0" parent="taNiYJZE4H6HRXasBe19-1" vertex="1">
          <mxGeometry x="200" y="140" width="86" height="50" as="geometry" />
        </mxCell>
        <mxCell id="p17I4pDVQMopZZmO1C1a-3" style="edgeStyle=orthogonalEdgeStyle;rounded=0;orthogonalLoop=1;jettySize=auto;html=1;exitX=0.5;exitY=1;exitDx=0;exitDy=0;fontSize=14;startArrow=classic;startFill=1;entryX=0.833;entryY=0.05;entryDx=0;entryDy=0;entryPerimeter=0;" parent="taNiYJZE4H6HRXasBe19-1" source="p17I4pDVQMopZZmO1C1a-4" target="p17I4pDVQMopZZmO1C1a-7" edge="1">
          <mxGeometry relative="1" as="geometry">
            <mxPoint x="262" y="270" as="targetPoint" />
          </mxGeometry>
        </mxCell>
        <mxCell id="p17I4pDVQMopZZmO1C1a-4" value="Pay&lt;br style=&quot;border-color: var(--border-color);&quot;&gt;for&lt;br style=&quot;border-color: var(--border-color);&quot;&gt;product" style="shape=step;perimeter=stepPerimeter;whiteSpace=wrap;html=1;fixedSize=1;fontSize=12;fontStyle=0" parent="taNiYJZE4H6HRXasBe19-1" vertex="1">
          <mxGeometry x="270" y="140" width="86" height="50" as="geometry" />
        </mxCell>
        <mxCell id="p17I4pDVQMopZZmO1C1a-6" value="" style="endArrow=classic;startArrow=classic;html=1;fontSize=14;entryX=0.5;entryY=1;entryDx=0;entryDy=0;edgeStyle=orthogonalEdgeStyle;exitX=0.5;exitY=0;exitDx=0;exitDy=0;exitPerimeter=0;" parent="taNiYJZE4H6HRXasBe19-1" source="p17I4pDVQMopZZmO1C1a-7" target="p17I4pDVQMopZZmO1C1a-2" edge="1">
          <mxGeometry width="50" height="50" relative="1" as="geometry">
            <mxPoint x="243" y="260" as="sourcePoint" />
            <mxPoint x="440" y="370" as="targetPoint" />
          </mxGeometry>
        </mxCell>
        <mxCell id="p17I4pDVQMopZZmO1C1a-7" value="Phased Cache" style="strokeWidth=1;html=1;shape=mxgraph.flowchart.database;whiteSpace=wrap;verticalAlign=middle;spacingTop=8;" parent="taNiYJZE4H6HRXasBe19-1" vertex="1">
          <mxGeometry x="193" y="240" width="100" height="40" as="geometry" />
        </mxCell>
        <mxCell id="p17I4pDVQMopZZmO1C1a-14" value="Export" style="edgeStyle=orthogonalEdgeStyle;rounded=0;orthogonalLoop=1;jettySize=auto;html=1;exitX=0.5;exitY=1;exitDx=0;exitDy=0;exitPerimeter=0;entryX=0.25;entryY=0;entryDx=0;entryDy=0;entryPerimeter=0;" parent="taNiYJZE4H6HRXasBe19-1" source="p17I4pDVQMopZZmO1C1a-8" target="p17I4pDVQMopZZmO1C1a-12" edge="1">
          <mxGeometry relative="1" as="geometry" />
        </mxCell>
        <mxCell id="p17I4pDVQMopZZmO1C1a-8" value="Phased Cache" style="strokeWidth=1;html=1;shape=mxgraph.flowchart.database;whiteSpace=wrap;verticalAlign=middle;spacingTop=8;" parent="taNiYJZE4H6HRXasBe19-1" vertex="1">
          <mxGeometry x="580" y="240" width="100" height="40" as="geometry" />
        </mxCell>
        <mxCell id="p17I4pDVQMopZZmO1C1a-11" value="Phased Cache" style="strokeWidth=1;html=1;shape=mxgraph.flowchart.database;whiteSpace=wrap;verticalAlign=middle;spacingTop=8;" parent="taNiYJZE4H6HRXasBe19-1" vertex="1">
          <mxGeometry x="760" y="240" width="100" height="40" as="geometry" />
        </mxCell>
        <mxCell id="p17I4pDVQMopZZmO1C1a-15" value="Import" style="edgeStyle=orthogonalEdgeStyle;rounded=0;orthogonalLoop=1;jettySize=auto;html=1;exitX=0.75;exitY=0;exitDx=0;exitDy=0;exitPerimeter=0;entryX=0.5;entryY=1;entryDx=0;entryDy=0;entryPerimeter=0;" parent="taNiYJZE4H6HRXasBe19-1" source="p17I4pDVQMopZZmO1C1a-12" target="p17I4pDVQMopZZmO1C1a-11" edge="1">
          <mxGeometry relative="1" as="geometry" />
        </mxCell>
        <mxCell id="p17I4pDVQMopZZmO1C1a-12" value="Phased Data" style="strokeWidth=1;html=1;shape=mxgraph.flowchart.document2;whiteSpace=wrap;size=0.25;" parent="taNiYJZE4H6HRXasBe19-1" vertex="1">
          <mxGeometry x="678" y="320" width="100" height="60" as="geometry" />
        </mxCell>
      </root>
    </mxGraphModel>
  </diagram>
  <diagram id="G03d0gYlYaPrVfK-Cqrl" name="Single Run">
    <mxGraphModel dx="1114" dy="824" grid="1" gridSize="10" guides="1" tooltips="1" connect="1" arrows="1" fold="1" page="1" pageScale="1" pageWidth="1169" pageHeight="827" math="0" shadow="0">
      <root>
        <mxCell id="0" />
        <mxCell id="1" parent="0" />
        <mxCell id="sznhkdIz22TGP7KY7tnN-1" value="" style="shape=table;html=1;whiteSpace=wrap;startSize=0;container=1;collapsible=0;childLayout=tableLayout;" parent="1" vertex="1">
          <mxGeometry x="200" y="250" width="590" height="180" as="geometry" />
        </mxCell>
        <mxCell id="sznhkdIz22TGP7KY7tnN-2" value="" style="shape=partialRectangle;html=1;whiteSpace=wrap;collapsible=0;dropTarget=0;pointerEvents=0;fillColor=none;top=0;left=0;bottom=0;right=0;points=[[0,0.5],[1,0.5]];portConstraint=eastwest;" parent="sznhkdIz22TGP7KY7tnN-1" vertex="1">
          <mxGeometry width="590" height="47" as="geometry" />
        </mxCell>
        <mxCell id="sznhkdIz22TGP7KY7tnN-3" value="" style="shape=partialRectangle;html=1;whiteSpace=wrap;connectable=0;overflow=hidden;fillColor=none;top=0;left=0;bottom=0;right=0;" parent="sznhkdIz22TGP7KY7tnN-2" vertex="1">
          <mxGeometry width="120" height="47" as="geometry">
            <mxRectangle width="120" height="47" as="alternateBounds" />
          </mxGeometry>
        </mxCell>
        <mxCell id="sznhkdIz22TGP7KY7tnN-4" value="&lt;span style=&quot;font-weight: 700&quot;&gt;PHASE 1&lt;/span&gt;&lt;br style=&quot;font-weight: 700&quot;&gt;&lt;span style=&quot;font-weight: 700&quot;&gt;(PRODUCER)&lt;/span&gt;" style="shape=partialRectangle;html=1;whiteSpace=wrap;connectable=0;overflow=hidden;fillColor=none;top=0;left=0;bottom=0;right=0;" parent="sznhkdIz22TGP7KY7tnN-2" vertex="1">
          <mxGeometry x="120" width="241" height="47" as="geometry">
            <mxRectangle width="241" height="47" as="alternateBounds" />
          </mxGeometry>
        </mxCell>
        <mxCell id="sznhkdIz22TGP7KY7tnN-5" value="&lt;span style=&quot;font-weight: 700&quot;&gt;PHASE 2&lt;/span&gt;&lt;br style=&quot;font-weight: 700&quot;&gt;&lt;span style=&quot;font-weight: 700&quot;&gt;(CONSUMER)&lt;/span&gt;" style="shape=partialRectangle;html=1;whiteSpace=wrap;connectable=0;overflow=hidden;fillColor=none;top=0;left=0;bottom=0;right=0;" parent="sznhkdIz22TGP7KY7tnN-2" vertex="1">
          <mxGeometry x="361" width="229" height="47" as="geometry">
            <mxRectangle width="229" height="47" as="alternateBounds" />
          </mxGeometry>
        </mxCell>
        <mxCell id="sznhkdIz22TGP7KY7tnN-6" value="" style="shape=partialRectangle;html=1;whiteSpace=wrap;collapsible=0;dropTarget=0;pointerEvents=0;fillColor=none;top=0;left=0;bottom=0;right=0;points=[[0,0.5],[1,0.5]];portConstraint=eastwest;" parent="sznhkdIz22TGP7KY7tnN-1" vertex="1">
          <mxGeometry y="47" width="590" height="133" as="geometry" />
        </mxCell>
        <mxCell id="sznhkdIz22TGP7KY7tnN-7" value="&lt;span style=&quot;font-weight: 700&quot;&gt;Single Run&lt;/span&gt;" style="shape=partialRectangle;html=1;whiteSpace=wrap;connectable=0;overflow=hidden;fillColor=none;top=0;left=0;bottom=0;right=0;" parent="sznhkdIz22TGP7KY7tnN-6" vertex="1">
          <mxGeometry width="120" height="133" as="geometry">
            <mxRectangle width="120" height="133" as="alternateBounds" />
          </mxGeometry>
        </mxCell>
        <mxCell id="sznhkdIz22TGP7KY7tnN-8" value="" style="shape=partialRectangle;html=1;whiteSpace=wrap;connectable=0;overflow=hidden;fillColor=none;top=0;left=0;bottom=0;right=0;" parent="sznhkdIz22TGP7KY7tnN-6" vertex="1">
          <mxGeometry x="120" width="241" height="133" as="geometry">
            <mxRectangle width="241" height="133" as="alternateBounds" />
          </mxGeometry>
        </mxCell>
        <mxCell id="sznhkdIz22TGP7KY7tnN-9" value="" style="shape=partialRectangle;html=1;whiteSpace=wrap;connectable=0;overflow=hidden;fillColor=none;top=0;left=0;bottom=0;right=0;" parent="sznhkdIz22TGP7KY7tnN-6" vertex="1">
          <mxGeometry x="361" width="229" height="133" as="geometry">
            <mxRectangle width="229" height="133" as="alternateBounds" />
          </mxGeometry>
        </mxCell>
        <mxCell id="sznhkdIz22TGP7KY7tnN-10" value="&lt;b style=&quot;font-size: 14px;&quot;&gt;Major Change&lt;/b&gt;" style="rounded=0;whiteSpace=wrap;html=1;fillColor=#e3c800;strokeColor=#B09500;fontColor=#000000;horizontal=0;rotation=-180;fontSize=14;" parent="1" vertex="1">
          <mxGeometry x="560" y="251.13" width="36" height="177.75" as="geometry" />
        </mxCell>
        <mxCell id="sznhkdIz22TGP7KY7tnN-11" value="Seach &lt;br&gt;Items" style="shape=step;perimeter=stepPerimeter;html=1;fixedSize=1;fontSize=12;fontStyle=0;whiteSpace=wrap;" parent="1" vertex="1">
          <mxGeometry x="364" y="338.5" width="86" height="50" as="geometry" />
        </mxCell>
        <mxCell id="sznhkdIz22TGP7KY7tnN-12" value="Put&lt;br&gt;&amp;nbsp;product&lt;br&gt;&amp;nbsp;in basket&lt;span style=&quot;color: rgba(0 , 0 , 0 , 0) ; font-family: monospace ; font-size: 0px&quot;&gt;%3CmxGraphModel%3E%3Croot%3E%3CmxCell%20id%3D%220%22%2F%3E%3CmxCell%20id%3D%221%22%20parent%3D%220%22%2F%3E%3CmxCell%20id%3D%222%22%20value%3D%22Step%201%22%20style%3D%22shape%3Dstep%3Bperimeter%3DstepPerimeter%3BwhiteSpace%3Dwrap%3Bhtml%3D1%3BfixedSize%3D1%3BfontSize%3D12%3BfontStyle%3D0%22%20vertex%3D%221%22%20parent%3D%221%22%3E%3CmxGeometry%20x%3D%22250%22%20y%3D%22160%22%20width%3D%2286%22%20height%3D%2250%22%20as%3D%22geometry%22%2F%3E%3C%2FmxCell%3E%3C%2Froot%3E%3C%2FmxGraphModel%3E&lt;/span&gt;" style="shape=step;perimeter=stepPerimeter;html=1;fixedSize=1;fontSize=12;fontStyle=0;whiteSpace=wrap;" parent="1" vertex="1">
          <mxGeometry x="434" y="338.5" width="86" height="50" as="geometry" />
        </mxCell>
        <mxCell id="sznhkdIz22TGP7KY7tnN-13" value="Pay &lt;br&gt;for &lt;br&gt;product" style="shape=step;perimeter=stepPerimeter;html=1;fixedSize=1;fontSize=12;fontStyle=0;whiteSpace=wrap;" parent="1" vertex="1">
          <mxGeometry x="640" y="338.5" width="86" height="50" as="geometry" />
        </mxCell>
      </root>
    </mxGraphModel>
  </diagram>
  <diagram id="552SzirvDYDwYki-Z_Lq" name="Shuffled Tests">
    <mxGraphModel dx="1114" dy="824" grid="1" gridSize="10" guides="1" tooltips="1" connect="1" arrows="1" fold="1" page="1" pageScale="1" pageWidth="1169" pageHeight="827" math="0" shadow="0">
      <root>
        <mxCell id="0" />
        <mxCell id="1" parent="0" />
        <mxCell id="NAA2fx9nmXlu3vvGhhVC-1" value="" style="shape=table;html=1;whiteSpace=wrap;startSize=0;container=1;collapsible=0;childLayout=tableLayout;fillColor=none;" parent="1" vertex="1">
          <mxGeometry x="30" y="80" width="710" height="412" as="geometry" />
        </mxCell>
        <mxCell id="NAA2fx9nmXlu3vvGhhVC-2" value="" style="shape=partialRectangle;html=1;whiteSpace=wrap;collapsible=0;dropTarget=0;pointerEvents=0;fillColor=none;top=0;left=0;bottom=0;right=0;points=[[0,0.5],[1,0.5]];portConstraint=eastwest;" parent="NAA2fx9nmXlu3vvGhhVC-1" vertex="1">
          <mxGeometry width="710" height="60" as="geometry" />
        </mxCell>
        <mxCell id="NAA2fx9nmXlu3vvGhhVC-3" value="" style="shape=partialRectangle;html=1;whiteSpace=wrap;connectable=0;overflow=hidden;fillColor=none;top=0;left=0;bottom=0;right=0;" parent="NAA2fx9nmXlu3vvGhhVC-2" vertex="1">
          <mxGeometry width="135" height="60" as="geometry">
            <mxRectangle width="135" height="60" as="alternateBounds" />
          </mxGeometry>
        </mxCell>
        <mxCell id="NAA2fx9nmXlu3vvGhhVC-4" value="&lt;span style=&quot;font-weight: 700&quot;&gt;PHASE 1&lt;/span&gt;&lt;br style=&quot;font-weight: 700&quot;&gt;&lt;span style=&quot;font-weight: 700&quot;&gt;(PRODUCER)&lt;/span&gt;" style="shape=partialRectangle;html=1;whiteSpace=wrap;connectable=0;overflow=hidden;fillColor=none;top=0;left=0;bottom=0;right=0;" parent="NAA2fx9nmXlu3vvGhhVC-2" vertex="1">
          <mxGeometry x="135" width="272" height="60" as="geometry">
            <mxRectangle width="272" height="60" as="alternateBounds" />
          </mxGeometry>
        </mxCell>
        <mxCell id="NAA2fx9nmXlu3vvGhhVC-5" value="&lt;span style=&quot;font-weight: 700&quot;&gt;PHASE 2&lt;/span&gt;&lt;br style=&quot;font-weight: 700&quot;&gt;&lt;span style=&quot;font-weight: 700&quot;&gt;(CONSUMER)&lt;/span&gt;" style="shape=partialRectangle;html=1;whiteSpace=wrap;connectable=0;overflow=hidden;fillColor=none;top=0;left=0;bottom=0;right=0;" parent="NAA2fx9nmXlu3vvGhhVC-2" vertex="1">
          <mxGeometry x="407" width="303" height="60" as="geometry">
            <mxRectangle width="303" height="60" as="alternateBounds" />
          </mxGeometry>
        </mxCell>
        <mxCell id="NAA2fx9nmXlu3vvGhhVC-6" value="" style="shape=partialRectangle;html=1;whiteSpace=wrap;collapsible=0;dropTarget=0;pointerEvents=0;fillColor=none;top=0;left=0;bottom=0;right=0;points=[[0,0.5],[1,0.5]];portConstraint=eastwest;" parent="NAA2fx9nmXlu3vvGhhVC-1" vertex="1">
          <mxGeometry y="60" width="710" height="88" as="geometry" />
        </mxCell>
        <mxCell id="NAA2fx9nmXlu3vvGhhVC-7" value="&lt;span style=&quot;font-weight: 700&quot;&gt;ShuffleGroup_3_0&lt;/span&gt;" style="shape=partialRectangle;html=1;whiteSpace=wrap;connectable=0;overflow=hidden;fillColor=none;top=0;left=0;bottom=0;right=0;" parent="NAA2fx9nmXlu3vvGhhVC-6" vertex="1">
          <mxGeometry width="135" height="88" as="geometry">
            <mxRectangle width="135" height="88" as="alternateBounds" />
          </mxGeometry>
        </mxCell>
        <mxCell id="NAA2fx9nmXlu3vvGhhVC-8" value="" style="shape=partialRectangle;html=1;whiteSpace=wrap;connectable=0;overflow=hidden;fillColor=none;top=0;left=0;bottom=0;right=0;" parent="NAA2fx9nmXlu3vvGhhVC-6" vertex="1">
          <mxGeometry x="135" width="272" height="88" as="geometry">
            <mxRectangle width="272" height="88" as="alternateBounds" />
          </mxGeometry>
        </mxCell>
        <mxCell id="NAA2fx9nmXlu3vvGhhVC-9" value="" style="shape=partialRectangle;html=1;whiteSpace=wrap;connectable=0;overflow=hidden;fillColor=none;top=0;left=0;bottom=0;right=0;" parent="NAA2fx9nmXlu3vvGhhVC-6" vertex="1">
          <mxGeometry x="407" width="303" height="88" as="geometry">
            <mxRectangle width="303" height="88" as="alternateBounds" />
          </mxGeometry>
        </mxCell>
        <mxCell id="NAA2fx9nmXlu3vvGhhVC-10" value="" style="shape=partialRectangle;html=1;whiteSpace=wrap;collapsible=0;dropTarget=0;pointerEvents=0;fillColor=none;top=0;left=0;bottom=0;right=0;points=[[0,0.5],[1,0.5]];portConstraint=eastwest;" parent="NAA2fx9nmXlu3vvGhhVC-1" vertex="1">
          <mxGeometry y="148" width="710" height="88" as="geometry" />
        </mxCell>
        <mxCell id="NAA2fx9nmXlu3vvGhhVC-11" value="&lt;span style=&quot;font-weight: 700&quot;&gt;ShuffleGroup_2_1&lt;/span&gt;" style="shape=partialRectangle;html=1;whiteSpace=wrap;connectable=0;overflow=hidden;fillColor=none;top=0;left=0;bottom=0;right=0;" parent="NAA2fx9nmXlu3vvGhhVC-10" vertex="1">
          <mxGeometry width="135" height="88" as="geometry">
            <mxRectangle width="135" height="88" as="alternateBounds" />
          </mxGeometry>
        </mxCell>
        <mxCell id="NAA2fx9nmXlu3vvGhhVC-12" value="" style="shape=partialRectangle;html=1;whiteSpace=wrap;connectable=0;overflow=hidden;fillColor=none;top=0;left=0;bottom=0;right=0;" parent="NAA2fx9nmXlu3vvGhhVC-10" vertex="1">
          <mxGeometry x="135" width="272" height="88" as="geometry">
            <mxRectangle width="272" height="88" as="alternateBounds" />
          </mxGeometry>
        </mxCell>
        <mxCell id="NAA2fx9nmXlu3vvGhhVC-13" value="" style="shape=partialRectangle;html=1;whiteSpace=wrap;connectable=0;overflow=hidden;fillColor=none;top=0;left=0;bottom=0;right=0;" parent="NAA2fx9nmXlu3vvGhhVC-10" vertex="1">
          <mxGeometry x="407" width="303" height="88" as="geometry">
            <mxRectangle width="303" height="88" as="alternateBounds" />
          </mxGeometry>
        </mxCell>
        <mxCell id="NAA2fx9nmXlu3vvGhhVC-14" value="" style="shape=partialRectangle;html=1;whiteSpace=wrap;collapsible=0;dropTarget=0;pointerEvents=0;fillColor=none;top=0;left=0;bottom=0;right=0;points=[[0,0.5],[1,0.5]];portConstraint=eastwest;" parent="NAA2fx9nmXlu3vvGhhVC-1" vertex="1">
          <mxGeometry y="236" width="710" height="88" as="geometry" />
        </mxCell>
        <mxCell id="NAA2fx9nmXlu3vvGhhVC-15" value="&lt;span style=&quot;font-weight: 700&quot;&gt;ShuffleGroup_1_2&lt;/span&gt;" style="shape=partialRectangle;html=1;whiteSpace=wrap;connectable=0;overflow=hidden;fillColor=none;top=0;left=0;bottom=0;right=0;" parent="NAA2fx9nmXlu3vvGhhVC-14" vertex="1">
          <mxGeometry width="135" height="88" as="geometry">
            <mxRectangle width="135" height="88" as="alternateBounds" />
          </mxGeometry>
        </mxCell>
        <mxCell id="NAA2fx9nmXlu3vvGhhVC-16" value="" style="shape=partialRectangle;html=1;whiteSpace=wrap;connectable=0;overflow=hidden;fillColor=none;top=0;left=0;bottom=0;right=0;" parent="NAA2fx9nmXlu3vvGhhVC-14" vertex="1">
          <mxGeometry x="135" width="272" height="88" as="geometry">
            <mxRectangle width="272" height="88" as="alternateBounds" />
          </mxGeometry>
        </mxCell>
        <mxCell id="NAA2fx9nmXlu3vvGhhVC-17" value="" style="shape=partialRectangle;html=1;whiteSpace=wrap;connectable=0;overflow=hidden;fillColor=none;top=0;left=0;bottom=0;right=0;" parent="NAA2fx9nmXlu3vvGhhVC-14" vertex="1">
          <mxGeometry x="407" width="303" height="88" as="geometry">
            <mxRectangle width="303" height="88" as="alternateBounds" />
          </mxGeometry>
        </mxCell>
        <mxCell id="NAA2fx9nmXlu3vvGhhVC-18" value="" style="shape=partialRectangle;html=1;whiteSpace=wrap;collapsible=0;dropTarget=0;pointerEvents=0;fillColor=none;top=0;left=0;bottom=0;right=0;points=[[0,0.5],[1,0.5]];portConstraint=eastwest;" parent="NAA2fx9nmXlu3vvGhhVC-1" vertex="1">
          <mxGeometry y="324" width="710" height="88" as="geometry" />
        </mxCell>
        <mxCell id="NAA2fx9nmXlu3vvGhhVC-19" value="&lt;span style=&quot;font-weight: 700&quot;&gt;ShuffleGroup_0_3&lt;/span&gt;" style="shape=partialRectangle;html=1;whiteSpace=wrap;connectable=0;overflow=hidden;fillColor=none;top=0;left=0;bottom=0;right=0;" parent="NAA2fx9nmXlu3vvGhhVC-18" vertex="1">
          <mxGeometry width="135" height="88" as="geometry">
            <mxRectangle width="135" height="88" as="alternateBounds" />
          </mxGeometry>
        </mxCell>
        <mxCell id="NAA2fx9nmXlu3vvGhhVC-20" value="" style="shape=partialRectangle;html=1;whiteSpace=wrap;connectable=0;overflow=hidden;fillColor=none;top=0;left=0;bottom=0;right=0;" parent="NAA2fx9nmXlu3vvGhhVC-18" vertex="1">
          <mxGeometry x="135" width="272" height="88" as="geometry">
            <mxRectangle width="272" height="88" as="alternateBounds" />
          </mxGeometry>
        </mxCell>
        <mxCell id="NAA2fx9nmXlu3vvGhhVC-21" value="" style="shape=partialRectangle;html=1;whiteSpace=wrap;connectable=0;overflow=hidden;fillColor=none;top=0;left=0;bottom=0;right=0;" parent="NAA2fx9nmXlu3vvGhhVC-18" vertex="1">
          <mxGeometry x="407" width="303" height="88" as="geometry">
            <mxRectangle width="303" height="88" as="alternateBounds" />
          </mxGeometry>
        </mxCell>
        <mxCell id="NAA2fx9nmXlu3vvGhhVC-22" value="Seach &lt;br&gt;Items" style="shape=step;perimeter=stepPerimeter;html=1;fixedSize=1;fontSize=12;fontStyle=0;whiteSpace=wrap;" parent="1" vertex="1">
          <mxGeometry x="180" y="160" width="86" height="50" as="geometry" />
        </mxCell>
        <mxCell id="NAA2fx9nmXlu3vvGhhVC-23" value="Put &lt;br&gt;&amp;nbsp;product &lt;br&gt;in basket" style="shape=step;perimeter=stepPerimeter;html=1;fixedSize=1;fontSize=12;fontStyle=0;whiteSpace=wrap;" parent="1" vertex="1">
          <mxGeometry x="250" y="160" width="86" height="50" as="geometry" />
        </mxCell>
        <mxCell id="NAA2fx9nmXlu3vvGhhVC-24" value="Pay &lt;br&gt;for &lt;br&gt;product" style="shape=step;perimeter=stepPerimeter;html=1;fixedSize=1;fontSize=12;fontStyle=0;whiteSpace=wrap;" parent="1" vertex="1">
          <mxGeometry x="320" y="160" width="86" height="50" as="geometry" />
        </mxCell>
        <mxCell id="NAA2fx9nmXlu3vvGhhVC-25" value="Seach &lt;br&gt;Items" style="shape=step;perimeter=stepPerimeter;html=1;fixedSize=1;fontSize=12;fontStyle=0;whiteSpace=wrap;" parent="1" vertex="1">
          <mxGeometry x="500" y="420" width="86" height="50" as="geometry" />
        </mxCell>
        <mxCell id="NAA2fx9nmXlu3vvGhhVC-26" value="Put&lt;br&gt;&amp;nbsp;product &lt;br&gt;&amp;nbsp;in basket&lt;span style=&quot;color: rgba(0 , 0 , 0 , 0) ; font-family: monospace ; font-size: 0px&quot;&gt;%3CmxGraphModel%3E%3Croot%3E%3CmxCell%20id%3D%220%22%2F%3E%3CmxCell%20id%3D%221%22%20parent%3D%220%22%2F%3E%3CmxCell%20id%3D%222%22%20value%3D%22Step%201%22%20style%3D%22shape%3Dstep%3Bperimeter%3DstepPerimeter%3BwhiteSpace%3Dwrap%3Bhtml%3D1%3BfixedSize%3D1%3BfontSize%3D12%3BfontStyle%3D0%22%20vertex%3D%221%22%20parent%3D%221%22%3E%3CmxGeometry%20x%3D%22250%22%20y%3D%22160%22%20width%3D%2286%22%20height%3D%2250%22%20as%3D%22geometry%22%2F%3E%3C%2FmxCell%3E%3C%2Froot%3E%3C%2FmxGraphModel%3E&lt;/span&gt;" style="shape=step;perimeter=stepPerimeter;html=1;fixedSize=1;fontSize=12;fontStyle=0;whiteSpace=wrap;" parent="1" vertex="1">
          <mxGeometry x="570" y="420" width="86" height="50" as="geometry" />
        </mxCell>
        <mxCell id="NAA2fx9nmXlu3vvGhhVC-27" value="Pay &lt;br&gt;for &lt;br&gt;product" style="shape=step;perimeter=stepPerimeter;html=1;fixedSize=1;fontSize=12;fontStyle=0;whiteSpace=wrap;" parent="1" vertex="1">
          <mxGeometry x="640" y="420" width="86" height="50" as="geometry" />
        </mxCell>
        <mxCell id="NAA2fx9nmXlu3vvGhhVC-28" value="&lt;b style=&quot;font-size: 14px;&quot;&gt;Major Change&lt;/b&gt;" style="rounded=0;whiteSpace=wrap;html=1;fillColor=#e3c800;strokeColor=#B09500;fontColor=#000000;horizontal=0;rotation=-180;fontSize=14;" parent="1" vertex="1">
          <mxGeometry x="420" y="81" width="36" height="410" as="geometry" />
        </mxCell>
        <mxCell id="NAA2fx9nmXlu3vvGhhVC-29" value="Seach &lt;br&gt;Items" style="shape=step;perimeter=stepPerimeter;html=1;fixedSize=1;fontSize=12;fontStyle=0;whiteSpace=wrap;" parent="1" vertex="1">
          <mxGeometry x="180" y="250" width="86" height="50" as="geometry" />
        </mxCell>
        <mxCell id="NAA2fx9nmXlu3vvGhhVC-30" value="Put &lt;br&gt;&amp;nbsp;product &lt;br&gt;in basket&lt;span style=&quot;color: rgba(0 , 0 , 0 , 0) ; font-family: monospace ; font-size: 0px&quot;&gt;%3CmxGraphModel%3E%3Croot%3E%3CmxCell%20id%3D%220%22%2F%3E%3CmxCell%20id%3D%221%22%20parent%3D%220%22%2F%3E%3CmxCell%20id%3D%222%22%20value%3D%22Step%201%22%20style%3D%22shape%3Dstep%3Bperimeter%3DstepPerimeter%3BwhiteSpace%3Dwrap%3Bhtml%3D1%3BfixedSize%3D1%3BfontSize%3D12%3BfontStyle%3D0%22%20vertex%3D%221%22%20parent%3D%221%22%3E%3CmxGeometry%20x%3D%22250%22%20y%3D%22160%22%20width%3D%2286%22%20height%3D%2250%22%20as%3D%22geometry%22%2F%3E%3C%2FmxCell%3E%3C%2Froot%3E%3C%2FmxGraphModel%3E&lt;/span&gt;" style="shape=step;perimeter=stepPerimeter;html=1;fixedSize=1;fontSize=12;fontStyle=0;whiteSpace=wrap;" parent="1" vertex="1">
          <mxGeometry x="250" y="250" width="86" height="50" as="geometry" />
        </mxCell>
        <mxCell id="NAA2fx9nmXlu3vvGhhVC-31" value="Pay&lt;br&gt;&amp;nbsp;for &lt;br&gt;product" style="shape=step;perimeter=stepPerimeter;html=1;fixedSize=1;fontSize=12;fontStyle=0;whiteSpace=wrap;" parent="1" vertex="1">
          <mxGeometry x="640" y="250" width="86" height="50" as="geometry" />
        </mxCell>
        <mxCell id="NAA2fx9nmXlu3vvGhhVC-32" value="Seach &lt;br&gt;Items" style="shape=step;perimeter=stepPerimeter;html=1;fixedSize=1;fontSize=12;fontStyle=0;whiteSpace=wrap;" parent="1" vertex="1">
          <mxGeometry x="180" y="340" width="86" height="50" as="geometry" />
        </mxCell>
        <mxCell id="NAA2fx9nmXlu3vvGhhVC-33" value="Put &lt;br&gt;&amp;nbsp;product &lt;br&gt;in basket&lt;span style=&quot;color: rgba(0 , 0 , 0 , 0) ; font-family: monospace ; font-size: 0px&quot;&gt;%3CmxGraphModel%3E%3Croot%3E%3CmxCell%20id%3D%220%22%2F%3E%3CmxCell%20id%3D%221%22%20parent%3D%220%22%2F%3E%3CmxCell%20id%3D%222%22%20value%3D%22Step%201%22%20style%3D%22shape%3Dstep%3Bperimeter%3DstepPerimeter%3BwhiteSpace%3Dwrap%3Bhtml%3D1%3BfixedSize%3D1%3BfontSize%3D12%3BfontStyle%3D0%22%20vertex%3D%221%22%20parent%3D%221%22%3E%3CmxGeometry%20x%3D%22250%22%20y%3D%22160%22%20width%3D%2286%22%20height%3D%2250%22%20as%3D%22geometry%22%2F%3E%3C%2FmxCell%3E%3C%2Froot%3E%3C%2FmxGraphModel%3E&lt;/span&gt;" style="shape=step;perimeter=stepPerimeter;html=1;fixedSize=1;fontSize=12;fontStyle=0;whiteSpace=wrap;" parent="1" vertex="1">
          <mxGeometry x="570" y="340" width="86" height="50" as="geometry" />
        </mxCell>
        <mxCell id="NAA2fx9nmXlu3vvGhhVC-34" value="Pay &lt;br&gt;for &lt;br&gt;product" style="shape=step;perimeter=stepPerimeter;html=1;fixedSize=1;fontSize=12;fontStyle=0;whiteSpace=wrap;" parent="1" vertex="1">
          <mxGeometry x="640" y="340" width="86" height="50" as="geometry" />
        </mxCell>
      </root>
    </mxGraphModel>
  </diagram>
  <diagram id="bmAFIGifuDWFv2DFS4L2" name="NIE">
    <mxGraphModel dx="1114" dy="824" grid="1" gridSize="10" guides="1" tooltips="1" connect="1" arrows="1" fold="1" page="1" pageScale="1" pageWidth="827" pageHeight="1169" math="0" shadow="0">
      <root>
        <mxCell id="0" />
        <mxCell id="1" parent="0" />
        <mxCell id="BSR8t9v2QelY6iPRKZL8-10" value="event" style="shape=parallelogram;perimeter=parallelogramPerimeter;whiteSpace=wrap;html=1;fixedSize=1;rotation=0;flipV=1;fillColor=#e3c800;fontColor=#000000;strokeColor=#B09500;" parent="1" vertex="1">
          <mxGeometry x="79" y="90" width="90" height="20" as="geometry" />
        </mxCell>
        <mxCell id="BSR8t9v2QelY6iPRKZL8-11" value="event" style="shape=parallelogram;perimeter=parallelogramPerimeter;whiteSpace=wrap;html=1;fixedSize=1;rotation=0;flipV=1;fillColor=#e3c800;fontColor=#000000;strokeColor=#B09500;" parent="1" vertex="1">
          <mxGeometry x="160" y="180" width="90" height="20" as="geometry" />
        </mxCell>
        <mxCell id="BSR8t9v2QelY6iPRKZL8-12" value="event" style="shape=parallelogram;perimeter=parallelogramPerimeter;whiteSpace=wrap;html=1;fixedSize=1;rotation=0;flipV=1;fillColor=#e3c800;fontColor=#000000;strokeColor=#B09500;" parent="1" vertex="1">
          <mxGeometry x="230" y="270" width="86" height="20" as="geometry" />
        </mxCell>
        <mxCell id="uzh9IWUEy_sZBIbmnXDV-1" value="Seach &lt;br&gt;Items" style="shape=step;perimeter=stepPerimeter;html=1;fixedSize=1;fontSize=12;fontStyle=0;whiteSpace=wrap;" parent="1" vertex="1">
          <mxGeometry x="99" y="110" width="90" height="50" as="geometry" />
        </mxCell>
        <mxCell id="uzh9IWUEy_sZBIbmnXDV-2" value="Put &lt;br&gt;&amp;nbsp;product &lt;br&gt;in basket" style="shape=step;perimeter=stepPerimeter;html=1;fixedSize=1;fontSize=12;fontStyle=0;whiteSpace=wrap;" parent="1" vertex="1">
          <mxGeometry x="180" y="110" width="86" height="50" as="geometry" />
        </mxCell>
        <mxCell id="uzh9IWUEy_sZBIbmnXDV-3" value="Pay &lt;br&gt;for &lt;br&gt;product" style="shape=step;perimeter=stepPerimeter;html=1;fixedSize=1;fontSize=12;fontStyle=0;whiteSpace=wrap;" parent="1" vertex="1">
          <mxGeometry x="250" y="110" width="86" height="50" as="geometry" />
        </mxCell>
        <mxCell id="uzh9IWUEy_sZBIbmnXDV-4" value="Seach &lt;br&gt;Items" style="shape=step;perimeter=stepPerimeter;html=1;fixedSize=1;fontSize=12;fontStyle=0;whiteSpace=wrap;" parent="1" vertex="1">
          <mxGeometry x="103" y="200" width="86" height="50" as="geometry" />
        </mxCell>
        <mxCell id="uzh9IWUEy_sZBIbmnXDV-5" value="Put &lt;br&gt;&amp;nbsp;product &lt;br&gt;in basket" style="shape=step;perimeter=stepPerimeter;html=1;fixedSize=1;fontSize=12;fontStyle=0;whiteSpace=wrap;" parent="1" vertex="1">
          <mxGeometry x="180" y="200" width="90" height="50" as="geometry" />
        </mxCell>
        <mxCell id="uzh9IWUEy_sZBIbmnXDV-6" value="Pay &lt;br&gt;for &lt;br&gt;product" style="shape=step;perimeter=stepPerimeter;html=1;fixedSize=1;fontSize=12;fontStyle=0;whiteSpace=wrap;" parent="1" vertex="1">
          <mxGeometry x="261" y="200" width="86" height="50" as="geometry" />
        </mxCell>
        <mxCell id="uzh9IWUEy_sZBIbmnXDV-7" value="Seach &lt;br&gt;Items" style="shape=step;perimeter=stepPerimeter;html=1;fixedSize=1;fontSize=12;fontStyle=0;whiteSpace=wrap;" parent="1" vertex="1">
          <mxGeometry x="103" y="290" width="86" height="50" as="geometry" />
        </mxCell>
        <mxCell id="uzh9IWUEy_sZBIbmnXDV-8" value="Put &lt;br&gt;&amp;nbsp;product &lt;br&gt;in basket" style="shape=step;perimeter=stepPerimeter;html=1;fixedSize=1;fontSize=12;fontStyle=0;whiteSpace=wrap;" parent="1" vertex="1">
          <mxGeometry x="173" y="290" width="86" height="50" as="geometry" />
        </mxCell>
        <mxCell id="uzh9IWUEy_sZBIbmnXDV-9" value="Pay &lt;br&gt;for &lt;br&gt;product" style="shape=step;perimeter=stepPerimeter;html=1;fixedSize=1;fontSize=12;fontStyle=0;whiteSpace=wrap;" parent="1" vertex="1">
          <mxGeometry x="250" y="290" width="86" height="50" as="geometry" />
        </mxCell>
      </root>
    </mxGraphModel>
  </diagram>
  <diagram id="282n9T6DIJRrMHzX2-3R" name="NIE Shuffled">
    <mxGraphModel dx="586" dy="434" grid="1" gridSize="10" guides="1" tooltips="1" connect="1" arrows="1" fold="1" page="1" pageScale="1" pageWidth="827" pageHeight="1169" math="0" shadow="0">
      <root>
        <mxCell id="0" />
        <mxCell id="1" parent="0" />
        <mxCell id="UXkLt-2fdSmCvE-sKYER-1" value="" style="shape=table;html=1;whiteSpace=wrap;startSize=0;container=1;collapsible=0;childLayout=tableLayout;fillColor=none;" parent="1" vertex="1">
          <mxGeometry x="30" y="80" width="407" height="324" as="geometry" />
        </mxCell>
        <mxCell id="UXkLt-2fdSmCvE-sKYER-2" value="" style="shape=partialRectangle;html=1;whiteSpace=wrap;collapsible=0;dropTarget=0;pointerEvents=0;fillColor=none;top=0;left=0;bottom=0;right=0;points=[[0,0.5],[1,0.5]];portConstraint=eastwest;" parent="UXkLt-2fdSmCvE-sKYER-1" vertex="1">
          <mxGeometry width="407" height="60" as="geometry" />
        </mxCell>
        <mxCell id="UXkLt-2fdSmCvE-sKYER-3" value="" style="shape=partialRectangle;html=1;whiteSpace=wrap;connectable=0;overflow=hidden;fillColor=none;top=0;left=0;bottom=0;right=0;" parent="UXkLt-2fdSmCvE-sKYER-2" vertex="1">
          <mxGeometry width="135" height="60" as="geometry">
            <mxRectangle width="135" height="60" as="alternateBounds" />
          </mxGeometry>
        </mxCell>
        <mxCell id="UXkLt-2fdSmCvE-sKYER-4" value="&lt;span style=&quot;font-weight: 700&quot;&gt;Non-Interruptive&lt;/span&gt;" style="shape=partialRectangle;html=1;whiteSpace=wrap;connectable=0;overflow=hidden;fillColor=none;top=0;left=0;bottom=0;right=0;" parent="UXkLt-2fdSmCvE-sKYER-2" vertex="1">
          <mxGeometry x="135" width="272" height="60" as="geometry">
            <mxRectangle width="272" height="60" as="alternateBounds" />
          </mxGeometry>
        </mxCell>
        <mxCell id="UXkLt-2fdSmCvE-sKYER-6" value="" style="shape=partialRectangle;html=1;whiteSpace=wrap;collapsible=0;dropTarget=0;pointerEvents=0;fillColor=none;top=0;left=0;bottom=0;right=0;points=[[0,0.5],[1,0.5]];portConstraint=eastwest;" parent="UXkLt-2fdSmCvE-sKYER-1" vertex="1">
          <mxGeometry y="60" width="407" height="88" as="geometry" />
        </mxCell>
        <mxCell id="UXkLt-2fdSmCvE-sKYER-7" value="&lt;b&gt;ShuffleGroupNIE_1&lt;/b&gt;" style="shape=partialRectangle;html=1;whiteSpace=wrap;connectable=0;overflow=hidden;fillColor=none;top=0;left=0;bottom=0;right=0;" parent="UXkLt-2fdSmCvE-sKYER-6" vertex="1">
          <mxGeometry width="135" height="88" as="geometry">
            <mxRectangle width="135" height="88" as="alternateBounds" />
          </mxGeometry>
        </mxCell>
        <mxCell id="UXkLt-2fdSmCvE-sKYER-8" value="" style="shape=partialRectangle;html=1;whiteSpace=wrap;connectable=0;overflow=hidden;fillColor=none;top=0;left=0;bottom=0;right=0;" parent="UXkLt-2fdSmCvE-sKYER-6" vertex="1">
          <mxGeometry x="135" width="272" height="88" as="geometry">
            <mxRectangle width="272" height="88" as="alternateBounds" />
          </mxGeometry>
        </mxCell>
        <mxCell id="UXkLt-2fdSmCvE-sKYER-10" value="" style="shape=partialRectangle;html=1;whiteSpace=wrap;collapsible=0;dropTarget=0;pointerEvents=0;fillColor=none;top=0;left=0;bottom=0;right=0;points=[[0,0.5],[1,0.5]];portConstraint=eastwest;" parent="UXkLt-2fdSmCvE-sKYER-1" vertex="1">
          <mxGeometry y="148" width="407" height="88" as="geometry" />
        </mxCell>
        <mxCell id="UXkLt-2fdSmCvE-sKYER-11" value="&lt;span style=&quot;font-weight: 700&quot;&gt;ShuffleGroupNIE_2&lt;/span&gt;" style="shape=partialRectangle;html=1;whiteSpace=wrap;connectable=0;overflow=hidden;fillColor=none;top=0;left=0;bottom=0;right=0;" parent="UXkLt-2fdSmCvE-sKYER-10" vertex="1">
          <mxGeometry width="135" height="88" as="geometry">
            <mxRectangle width="135" height="88" as="alternateBounds" />
          </mxGeometry>
        </mxCell>
        <mxCell id="UXkLt-2fdSmCvE-sKYER-12" value="" style="shape=partialRectangle;html=1;whiteSpace=wrap;connectable=0;overflow=hidden;fillColor=none;top=0;left=0;bottom=0;right=0;" parent="UXkLt-2fdSmCvE-sKYER-10" vertex="1">
          <mxGeometry x="135" width="272" height="88" as="geometry">
            <mxRectangle width="272" height="88" as="alternateBounds" />
          </mxGeometry>
        </mxCell>
        <mxCell id="UXkLt-2fdSmCvE-sKYER-14" value="" style="shape=partialRectangle;html=1;whiteSpace=wrap;collapsible=0;dropTarget=0;pointerEvents=0;fillColor=none;top=0;left=0;bottom=0;right=0;points=[[0,0.5],[1,0.5]];portConstraint=eastwest;" parent="UXkLt-2fdSmCvE-sKYER-1" vertex="1">
          <mxGeometry y="236" width="407" height="88" as="geometry" />
        </mxCell>
        <mxCell id="UXkLt-2fdSmCvE-sKYER-15" value="&lt;span style=&quot;font-weight: 700&quot;&gt;ShuffleGroupNIE_3&lt;/span&gt;" style="shape=partialRectangle;html=1;whiteSpace=wrap;connectable=0;overflow=hidden;fillColor=none;top=0;left=0;bottom=0;right=0;" parent="UXkLt-2fdSmCvE-sKYER-14" vertex="1">
          <mxGeometry width="135" height="88" as="geometry">
            <mxRectangle width="135" height="88" as="alternateBounds" />
          </mxGeometry>
        </mxCell>
        <mxCell id="UXkLt-2fdSmCvE-sKYER-16" value="" style="shape=partialRectangle;html=1;whiteSpace=wrap;connectable=0;overflow=hidden;fillColor=none;top=0;left=0;bottom=0;right=0;" parent="UXkLt-2fdSmCvE-sKYER-14" vertex="1">
          <mxGeometry x="135" width="272" height="88" as="geometry">
            <mxRectangle width="272" height="88" as="alternateBounds" />
          </mxGeometry>
        </mxCell>
        <mxCell id="tYrIjDeSzLh5b9e1h9Rj-1" value="event" style="shape=parallelogram;perimeter=parallelogramPerimeter;whiteSpace=wrap;html=1;fixedSize=1;rotation=0;flipV=1;fillColor=#e3c800;fontColor=#000000;strokeColor=#B09500;" parent="1" vertex="1">
          <mxGeometry x="170" y="150" width="90" height="20" as="geometry" />
        </mxCell>
        <mxCell id="tYrIjDeSzLh5b9e1h9Rj-2" value="event" style="shape=parallelogram;perimeter=parallelogramPerimeter;whiteSpace=wrap;html=1;fixedSize=1;rotation=0;flipV=1;fillColor=#e3c800;fontColor=#000000;strokeColor=#B09500;" parent="1" vertex="1">
          <mxGeometry x="240" y="238" width="90" height="20" as="geometry" />
        </mxCell>
        <mxCell id="tYrIjDeSzLh5b9e1h9Rj-3" value="event" style="shape=parallelogram;perimeter=parallelogramPerimeter;whiteSpace=wrap;html=1;fixedSize=1;rotation=0;flipV=1;fillColor=#e3c800;fontColor=#000000;strokeColor=#B09500;" parent="1" vertex="1">
          <mxGeometry x="321" y="326" width="86" height="20" as="geometry" />
        </mxCell>
        <mxCell id="tYrIjDeSzLh5b9e1h9Rj-4" value="Seach &lt;br&gt;Items" style="shape=step;perimeter=stepPerimeter;html=1;fixedSize=1;fontSize=12;fontStyle=0;whiteSpace=wrap;" parent="1" vertex="1">
          <mxGeometry x="190" y="170" width="90" height="50" as="geometry" />
        </mxCell>
        <mxCell id="tYrIjDeSzLh5b9e1h9Rj-5" value="Put &lt;br&gt;&amp;nbsp;product &lt;br&gt;in basket" style="shape=step;perimeter=stepPerimeter;html=1;fixedSize=1;fontSize=12;fontStyle=0;whiteSpace=wrap;" parent="1" vertex="1">
          <mxGeometry x="271" y="170" width="86" height="50" as="geometry" />
        </mxCell>
        <mxCell id="tYrIjDeSzLh5b9e1h9Rj-6" value="Pay &lt;br&gt;for &lt;br&gt;product" style="shape=step;perimeter=stepPerimeter;html=1;fixedSize=1;fontSize=12;fontStyle=0;whiteSpace=wrap;" parent="1" vertex="1">
          <mxGeometry x="341" y="170" width="86" height="50" as="geometry" />
        </mxCell>
        <mxCell id="tYrIjDeSzLh5b9e1h9Rj-7" value="Seach &lt;br&gt;Items" style="shape=step;perimeter=stepPerimeter;html=1;fixedSize=1;fontSize=12;fontStyle=0;whiteSpace=wrap;" parent="1" vertex="1">
          <mxGeometry x="183" y="258" width="86" height="50" as="geometry" />
        </mxCell>
        <mxCell id="tYrIjDeSzLh5b9e1h9Rj-8" value="Put &lt;br&gt;&amp;nbsp;product &lt;br&gt;in basket" style="shape=step;perimeter=stepPerimeter;html=1;fixedSize=1;fontSize=12;fontStyle=0;whiteSpace=wrap;" parent="1" vertex="1">
          <mxGeometry x="260" y="258" width="90" height="50" as="geometry" />
        </mxCell>
        <mxCell id="tYrIjDeSzLh5b9e1h9Rj-9" value="Pay &lt;br&gt;for &lt;br&gt;product" style="shape=step;perimeter=stepPerimeter;html=1;fixedSize=1;fontSize=12;fontStyle=0;whiteSpace=wrap;" parent="1" vertex="1">
          <mxGeometry x="341" y="258" width="86" height="50" as="geometry" />
        </mxCell>
        <mxCell id="tYrIjDeSzLh5b9e1h9Rj-10" value="Seach &lt;br&gt;Items" style="shape=step;perimeter=stepPerimeter;html=1;fixedSize=1;fontSize=12;fontStyle=0;whiteSpace=wrap;" parent="1" vertex="1">
          <mxGeometry x="194" y="346" width="86" height="50" as="geometry" />
        </mxCell>
        <mxCell id="tYrIjDeSzLh5b9e1h9Rj-11" value="Put &lt;br&gt;&amp;nbsp;product &lt;br&gt;in basket" style="shape=step;perimeter=stepPerimeter;html=1;fixedSize=1;fontSize=12;fontStyle=0;whiteSpace=wrap;" parent="1" vertex="1">
          <mxGeometry x="264" y="346" width="86" height="50" as="geometry" />
        </mxCell>
        <mxCell id="tYrIjDeSzLh5b9e1h9Rj-12" value="Pay &lt;br&gt;for &lt;br&gt;product" style="shape=step;perimeter=stepPerimeter;html=1;fixedSize=1;fontSize=12;fontStyle=0;whiteSpace=wrap;" parent="1" vertex="1">
          <mxGeometry x="341" y="346" width="86" height="50" as="geometry" />
        </mxCell>
      </root>
    </mxGraphModel>
  </diagram>
  <diagram id="4diHMdd_DkGPQnE_pLOS" name="DemoScenario">
    <mxGraphModel dx="1114" dy="824" grid="1" gridSize="10" guides="1" tooltips="1" connect="1" arrows="1" fold="1" page="1" pageScale="1" pageWidth="827" pageHeight="1169" math="0" shadow="0">
      <root>
        <mxCell id="0" />
        <mxCell id="1" parent="0" />
        <mxCell id="aWCw1dShiZ7oaPHqhbrL-7" value="Login" style="shape=step;perimeter=stepPerimeter;whiteSpace=wrap;html=1;fixedSize=1;fillColor=#ffe6cc;strokeColor=#d79b00;" vertex="1" parent="1">
          <mxGeometry x="180" y="330" width="120" height="80" as="geometry" />
        </mxCell>
        <mxCell id="aWCw1dShiZ7oaPHqhbrL-8" value="Put &lt;br&gt;Product&lt;br&gt;in basket&amp;nbsp;" style="shape=step;perimeter=stepPerimeter;whiteSpace=wrap;html=1;fixedSize=1;fillColor=#f8cecc;strokeColor=#b85450;" vertex="1" parent="1">
          <mxGeometry x="400" y="330" width="120" height="80" as="geometry" />
        </mxCell>
        <mxCell id="aWCw1dShiZ7oaPHqhbrL-9" value="Checkout &lt;br&gt;and &lt;br&gt;Pay" style="shape=step;perimeter=stepPerimeter;whiteSpace=wrap;html=1;fixedSize=1;fillColor=#e1d5e7;strokeColor=#9673a6;" vertex="1" parent="1">
          <mxGeometry x="506" y="330" width="120" height="80" as="geometry" />
        </mxCell>
        <mxCell id="aWCw1dShiZ7oaPHqhbrL-10" value="Search &lt;br&gt;Product" style="shape=step;perimeter=stepPerimeter;whiteSpace=wrap;html=1;fixedSize=1;fillColor=#fff2cc;strokeColor=#d6b656;" vertex="1" parent="1">
          <mxGeometry x="290" y="330" width="120" height="80" as="geometry" />
        </mxCell>
      </root>
    </mxGraphModel>
  </diagram>
  <diagram name="DemoScenario Data" id="Wo99MJqxTomiDxqfHh8u">
    <mxGraphModel dx="1114" dy="824" grid="1" gridSize="10" guides="1" tooltips="1" connect="1" arrows="1" fold="1" page="1" pageScale="1" pageWidth="827" pageHeight="1169" math="0" shadow="0">
      <root>
        <mxCell id="5msDCyN-kZwPvuSox3sl-0" />
        <mxCell id="5msDCyN-kZwPvuSox3sl-1" parent="5msDCyN-kZwPvuSox3sl-0" />
        <mxCell id="F29KcMm5w5M3MKzeSFMC-4" value="Authentication" style="shape=parallelogram;perimeter=parallelogramPerimeter;whiteSpace=wrap;html=1;fixedSize=1;fillColor=#d5e8d4;strokeColor=#82b366;" parent="5msDCyN-kZwPvuSox3sl-1" vertex="1">
          <mxGeometry x="110" y="500" width="120" height="30" as="geometry" />
        </mxCell>
        <mxCell id="F29KcMm5w5M3MKzeSFMC-5" value="Product" style="shape=parallelogram;perimeter=parallelogramPerimeter;whiteSpace=wrap;html=1;fixedSize=1;fillColor=#d5e8d4;strokeColor=#82b366;" parent="5msDCyN-kZwPvuSox3sl-1" vertex="1">
          <mxGeometry x="221" y="500" width="120" height="30" as="geometry" />
        </mxCell>
        <mxCell id="F29KcMm5w5M3MKzeSFMC-6" value="Basket" style="shape=parallelogram;perimeter=parallelogramPerimeter;whiteSpace=wrap;html=1;fixedSize=1;fillColor=#d5e8d4;strokeColor=#82b366;" parent="5msDCyN-kZwPvuSox3sl-1" vertex="1">
          <mxGeometry x="330" y="500" width="120" height="30" as="geometry" />
        </mxCell>
        <mxCell id="F29KcMm5w5M3MKzeSFMC-7" value="Authentication" style="shape=parallelogram;perimeter=parallelogramPerimeter;whiteSpace=wrap;html=1;fixedSize=1;fillColor=#dae8fc;strokeColor=#6c8ebf;" parent="5msDCyN-kZwPvuSox3sl-1" vertex="1">
          <mxGeometry x="440.5" y="500" width="120" height="30" as="geometry" />
        </mxCell>
        <mxCell id="F29KcMm5w5M3MKzeSFMC-8" value="Product" style="shape=parallelogram;perimeter=parallelogramPerimeter;whiteSpace=wrap;html=1;fixedSize=1;fillColor=#dae8fc;strokeColor=#6c8ebf;" parent="5msDCyN-kZwPvuSox3sl-1" vertex="1">
          <mxGeometry x="310" y="530" width="120" height="30" as="geometry" />
        </mxCell>
        <mxCell id="F29KcMm5w5M3MKzeSFMC-9" value="Product" style="shape=parallelogram;perimeter=parallelogramPerimeter;whiteSpace=wrap;html=1;fixedSize=1;fillColor=#dae8fc;strokeColor=#6c8ebf;" parent="5msDCyN-kZwPvuSox3sl-1" vertex="1">
          <mxGeometry x="420.5" y="530" width="120" height="30" as="geometry" />
        </mxCell>
        <mxCell id="F29KcMm5w5M3MKzeSFMC-10" value="Basket" style="shape=parallelogram;perimeter=parallelogramPerimeter;whiteSpace=wrap;html=1;fixedSize=1;fillColor=#dae8fc;strokeColor=#6c8ebf;" parent="5msDCyN-kZwPvuSox3sl-1" vertex="1">
          <mxGeometry x="400.5" y="560" width="120" height="30" as="geometry" />
        </mxCell>
        <mxCell id="F29KcMm5w5M3MKzeSFMC-11" value="" style="rounded=0;whiteSpace=wrap;html=1;fillColor=#d5e8d4;strokeColor=#82b366;" parent="5msDCyN-kZwPvuSox3sl-1" vertex="1">
          <mxGeometry x="618" y="508.5" width="36" height="32" as="geometry" />
        </mxCell>
        <mxCell id="F29KcMm5w5M3MKzeSFMC-12" value="Produce" style="rounded=0;whiteSpace=wrap;html=1;" parent="5msDCyN-kZwPvuSox3sl-1" vertex="1">
          <mxGeometry x="654" y="508.5" width="75" height="32" as="geometry" />
        </mxCell>
        <mxCell id="F29KcMm5w5M3MKzeSFMC-13" value="" style="rounded=0;whiteSpace=wrap;html=1;fillColor=#dae8fc;strokeColor=#6c8ebf;" parent="5msDCyN-kZwPvuSox3sl-1" vertex="1">
          <mxGeometry x="618" y="549.5" width="36" height="32" as="geometry" />
        </mxCell>
        <mxCell id="F29KcMm5w5M3MKzeSFMC-14" value="Consume" style="rounded=0;whiteSpace=wrap;html=1;" parent="5msDCyN-kZwPvuSox3sl-1" vertex="1">
          <mxGeometry x="654" y="549.5" width="75" height="32" as="geometry" />
        </mxCell>
        <mxCell id="F29KcMm5w5M3MKzeSFMC-15" value="Login" style="shape=step;perimeter=stepPerimeter;whiteSpace=wrap;html=1;fixedSize=1;fillColor=#ffe6cc;strokeColor=#d79b00;" parent="5msDCyN-kZwPvuSox3sl-1" vertex="1">
          <mxGeometry x="130" y="420" width="120" height="80" as="geometry" />
        </mxCell>
        <mxCell id="F29KcMm5w5M3MKzeSFMC-16" value="Put &lt;br&gt;Product&lt;br&gt;in basket&amp;nbsp;" style="shape=step;perimeter=stepPerimeter;whiteSpace=wrap;html=1;fixedSize=1;fillColor=#f8cecc;strokeColor=#b85450;" parent="5msDCyN-kZwPvuSox3sl-1" vertex="1">
          <mxGeometry x="350" y="420" width="120" height="80" as="geometry" />
        </mxCell>
        <mxCell id="F29KcMm5w5M3MKzeSFMC-17" value="Checkout &lt;br&gt;and &lt;br&gt;Pay" style="shape=step;perimeter=stepPerimeter;whiteSpace=wrap;html=1;fixedSize=1;fillColor=#e1d5e7;strokeColor=#9673a6;" parent="5msDCyN-kZwPvuSox3sl-1" vertex="1">
          <mxGeometry x="461" y="420" width="120" height="80" as="geometry" />
        </mxCell>
        <mxCell id="F29KcMm5w5M3MKzeSFMC-18" value="Search &lt;br&gt;Product" style="shape=step;perimeter=stepPerimeter;whiteSpace=wrap;html=1;fixedSize=1;fillColor=#fff2cc;strokeColor=#d6b656;" parent="5msDCyN-kZwPvuSox3sl-1" vertex="1">
          <mxGeometry x="240" y="420" width="120" height="80" as="geometry" />
        </mxCell>
      </root>
    </mxGraphModel>
  </diagram>
  <diagram id="gLLyNWwNBjD4fMKGdv8t" name="Demo Processes">
    <mxGraphModel dx="1114" dy="824" grid="1" gridSize="10" guides="1" tooltips="1" connect="1" arrows="1" fold="1" page="1" pageScale="1" pageWidth="827" pageHeight="1169" math="0" shadow="0">
      <root>
        <mxCell id="0" />
        <mxCell id="1" parent="0" />
        <mxCell id="Bvcjxqke_lIYo9lqvQz4-1" value="Default" style="text;html=1;strokeColor=none;fillColor=none;align=center;verticalAlign=middle;whiteSpace=wrap;rounded=0;" parent="1" vertex="1">
          <mxGeometry x="40" y="30" width="60" height="30" as="geometry" />
        </mxCell>
        <mxCell id="Bvcjxqke_lIYo9lqvQz4-4" value="" style="edgeStyle=orthogonalEdgeStyle;rounded=0;orthogonalLoop=1;jettySize=auto;html=1;" parent="1" source="Bvcjxqke_lIYo9lqvQz4-2" target="Bvcjxqke_lIYo9lqvQz4-3" edge="1">
          <mxGeometry relative="1" as="geometry" />
        </mxCell>
        <mxCell id="Bvcjxqke_lIYo9lqvQz4-10" value="" style="edgeStyle=orthogonalEdgeStyle;rounded=0;orthogonalLoop=1;jettySize=auto;html=1;" parent="1" source="Bvcjxqke_lIYo9lqvQz4-2" target="Bvcjxqke_lIYo9lqvQz4-9" edge="1">
          <mxGeometry relative="1" as="geometry" />
        </mxCell>
        <mxCell id="Bvcjxqke_lIYo9lqvQz4-2" value="resetDB" style="rounded=0;whiteSpace=wrap;html=1;" parent="1" vertex="1">
          <mxGeometry x="80" y="160" width="120" height="60" as="geometry" />
        </mxCell>
        <mxCell id="Bvcjxqke_lIYo9lqvQz4-6" value="" style="edgeStyle=orthogonalEdgeStyle;rounded=0;orthogonalLoop=1;jettySize=auto;html=1;" parent="1" source="Bvcjxqke_lIYo9lqvQz4-3" target="Bvcjxqke_lIYo9lqvQz4-5" edge="1">
          <mxGeometry relative="1" as="geometry" />
        </mxCell>
        <mxCell id="Bvcjxqke_lIYo9lqvQz4-3" value="searchForProduct" style="whiteSpace=wrap;html=1;rounded=0;" parent="1" vertex="1">
          <mxGeometry x="280" y="160" width="120" height="60" as="geometry" />
        </mxCell>
        <mxCell id="Bvcjxqke_lIYo9lqvQz4-8" value="" style="edgeStyle=orthogonalEdgeStyle;rounded=0;orthogonalLoop=1;jettySize=auto;html=1;" parent="1" source="Bvcjxqke_lIYo9lqvQz4-5" target="Bvcjxqke_lIYo9lqvQz4-7" edge="1">
          <mxGeometry relative="1" as="geometry" />
        </mxCell>
        <mxCell id="Bvcjxqke_lIYo9lqvQz4-5" value="addToShoppingBasket" style="whiteSpace=wrap;html=1;rounded=0;" parent="1" vertex="1">
          <mxGeometry x="480" y="160" width="130" height="60" as="geometry" />
        </mxCell>
        <mxCell id="Bvcjxqke_lIYo9lqvQz4-7" value="payForProduct" style="whiteSpace=wrap;html=1;rounded=0;" parent="1" vertex="1">
          <mxGeometry x="680" y="160" width="120" height="60" as="geometry" />
        </mxCell>
        <mxCell id="Bvcjxqke_lIYo9lqvQz4-9" value="loadPriceDB" style="rounded=1;whiteSpace=wrap;html=1;strokeColor=#431AE8;fontColor=#431AE8;" parent="1" vertex="1">
          <mxGeometry x="80" y="270" width="120" height="60" as="geometry" />
        </mxCell>
      </root>
    </mxGraphModel>
  </diagram>
</mxfile>
